# xmcd CD Database Entry
#
# Track frame offsets:
# 150
# 2095
# 35806
# 37361
# 59942
# 81148
# 84423
# 104389
# 123169
# 126289
# 142360
# 146341
# 167257
# 169988
# 192428
# 196158
# 211958
# 214943
# 233488
# 248969
# 269920
#
# Disc length: 3633 seconds
#
# Revision: 4
# Processed by: cddbd v1.4PL0 Copyright (c) Steve Scherf et al.
# Submitted via: tcd 2.0b
#
DISCID=450e2f15
DTITLE=Deltron 3030 - Deltron 3030
DYEAR=1900
DGENRE=
TTITLE0=State of the Nation
TTITLE1=3030
TTITLE2=The Fantabulous Rap Extravaganza
TTITLE3=Things You Can Do
TTITLE4=Positive Contact
TTITLE5=St. Catherine St.
TTITLE6=Virus
TTITLE7=Upgrade (A Brymar College Course)
TTITLE8=New Coke
TTITLE9=Mastermind
TTITLE10=National Movie Review
TTITLE11=Madness
TTITLE12=Meet Cleofis Randolph The Patriach
TTITLE13=Time Keeps On Slipping
TTITLE14=The News (A Wholly Owned Subsidiary of Microsoft Inc.)
TTITLE15=Turbulence (Remix)
TTITLE16=The Fantabulous Rap Extravaganza Part II
TTITLE17=Battlesong
TTITLE18=Love Song
TTITLE19=Memory Loss
TTITLE20=The Assman 640 Speaks
EXTD=
EXTT0=
EXTT1=
EXTT2=
EXTT3=
EXTT4=
EXTT5=
EXTT6=
EXTT7=
EXTT8=
EXTT9=
EXTT10=
EXTT11=
EXTT12=
EXTT13=
EXTT14=
EXTT15=
EXTT16=
EXTT17=
EXTT18=
EXTT19=
EXTT20=
PLAYORDER=
